# xmcd
# 
# Track frame offsets:
#     150
#     15224
#     30575
#     43411
#     58917
#     72317
#     88312
#     103012
#     118131
#     130798
#     144573
#     160737
# 
# Disc length: 2345
# 
# Revision: 0
# Processed by: cddbd v1.5.2PL0 Copyright (c) Steve Scherf et al.
# Submitted via: BonkEnc v1.0
# 
DISCID=a809270c
DTITLE=Truck Stop - Willkommen in der Familie
DYEAR=0
DGENRE=Country
TTITLE0=All' das magich - dich brauch ich
TTITLE1=Das analoge Mädchen
TTITLE2=Contry Music
TTITLE3=Einfache Cowboys
TTITLE4=Ich bin Cowboy
TTITLE5=Ich bin dein Mann
TTITLE6=Keine Zeit
TTITLE7=Der Lack ist ab
TTITLE8=Männer
TTITLE9=Sattel nicht gleich die Pferde
TTITLE10=Spuren deiner Liebe
TTITLE11=Willkommen in der Familie
EXTD=
EXTT0=
EXTT1=
EXTT2=
EXTT3=
EXTT4=
EXTT5=
EXTT6=
EXTT7=
EXTT8=
EXTT9=
EXTT10=
EXTT11=
PLAYORDER=
